<svg width="57" height="58" viewBox="0 0 57 58" fill="none" xmlns="http://www.w3.org/2000/svg">
<path d="M0.671224 57.4404L7.32267 57.4404L7.32267 50.5572L0.671223 50.5572L0.671224 57.4404ZM56.0475 0.977991C56.0475 0.512408 55.6828 0.13498 55.2329 0.13498L47.9012 0.134979C47.4513 0.134979 47.0866 0.512413 47.0866 0.97799C47.0866 1.44357 47.4513 1.821 47.9012 1.821L54.4183 1.821L54.4183 8.56509C54.4183 9.03067 54.783 9.4081 55.2329 9.4081C55.6828 9.4081 56.0475 9.03067 56.0475 8.56509L56.0475 0.977991ZM4.57298 54.5949L55.8089 1.57409L54.6569 0.381892L3.42092 53.4027L4.57298 54.5949Z" fill="#2D2D2D"/>
</svg>
