<svg width="36" height="37" viewBox="0 0 36 37" fill="none" xmlns="http://www.w3.org/2000/svg">
<path d="M11.7045 8.96997C12.588 8.96997 13.383 9.04647 14.112 9.20247C14.8365 9.35697 15.4545 9.61197 15.9765 9.96447C16.491 10.317 16.893 10.785 17.1825 11.373C17.463 11.9535 17.6025 12.6795 17.6025 13.5375C17.6025 14.4675 17.3925 15.2445 16.971 15.864C16.5465 16.485 15.921 16.9935 15.087 17.3865C16.2225 17.715 17.064 18.2895 17.622 19.1055C18.183 19.929 18.4575 20.9145 18.4575 22.0695C18.4575 23.007 18.279 23.8125 17.9205 24.489C17.575 25.1554 17.0738 25.7286 16.4595 26.16C15.8232 26.6031 15.1124 26.9283 14.361 27.12C13.5732 27.3268 12.762 27.4306 11.9475 27.429H3V8.96997H11.7045ZM11.178 16.428C11.898 16.428 12.495 16.257 12.966 15.9105C13.434 15.5685 13.6605 15.0045 13.6605 14.232C13.6605 13.803 13.584 13.449 13.434 13.1715C13.2879 12.9045 13.0716 12.6825 12.8085 12.5295C12.5331 12.3662 12.2292 12.2567 11.913 12.207C11.5683 12.1427 11.2181 12.112 10.8675 12.1155H7.065V16.428H11.178ZM11.4045 24.2865C11.805 24.2865 12.186 24.252 12.5445 24.171C12.906 24.093 13.227 23.967 13.5 23.7795C13.773 23.5995 13.998 23.355 14.16 23.043C14.3235 22.734 14.403 22.3305 14.403 21.846C14.403 20.895 14.1345 20.2185 13.6035 19.809C13.071 19.404 12.357 19.203 11.4825 19.203H7.065V24.288H11.4045V24.2865ZM24.252 24.225C24.8025 24.762 25.596 25.032 26.628 25.032C27.3675 25.032 28.0065 24.8445 28.545 24.4725C29.076 24.099 29.4 23.7 29.5245 23.2875H32.757C32.238 24.8955 31.4505 26.0445 30.3735 26.736C29.31 27.4305 28.0155 27.7755 26.5035 27.7755C25.4505 27.7755 24.5025 27.606 23.6535 27.27C22.8386 26.9526 22.1022 26.4624 21.495 25.833C20.8978 25.1889 20.4362 24.4314 20.1375 23.6055C19.8092 22.6921 19.6466 21.7275 19.6575 20.757C19.6575 19.758 19.824 18.8235 20.151 17.961C20.4614 17.1272 20.9381 16.3653 21.552 15.7215C22.1595 15.0915 22.8795 14.595 23.718 14.2305C24.5997 13.8596 25.5485 13.6748 26.505 13.6875C27.636 13.6875 28.6245 13.9065 29.4735 14.3475C30.2968 14.7684 31.0107 15.3755 31.5585 16.1205C32.103 16.86 32.4915 17.7075 32.733 18.657C32.9745 19.605 33.0585 20.595 32.9895 21.6315H23.343C23.3445 22.6875 23.7 23.688 24.252 24.225ZM28.47 17.2035C28.0335 16.7205 27.2955 16.4595 26.3925 16.4595C25.806 16.4595 25.3215 16.557 24.9315 16.758C24.5749 16.9381 24.2585 17.1886 24.0015 17.4945C23.7758 17.7721 23.6084 18.0926 23.5095 18.4365C23.423 18.7232 23.3672 19.0184 23.343 19.317H29.316C29.229 18.381 28.908 17.6895 28.47 17.2035ZM22.593 10.209H30.0765V12.0315H22.593V10.209Z" fill="black"/>
</svg>
