<svg width="36" height="37" viewBox="0 0 36 37" fill="none" xmlns="http://www.w3.org/2000/svg">
<path d="M14.3895 16.83C13.5765 16.83 12.936 17.5425 12.936 18.4125C12.936 19.2795 13.5915 19.995 14.3895 19.995C15.201 19.995 15.8415 19.2795 15.8415 18.4125C15.858 17.541 15.201 16.83 14.3895 16.83ZM19.5915 16.83C18.7785 16.83 18.138 17.5425 18.138 18.4125C18.138 19.2795 18.7935 19.995 19.5915 19.995C20.403 19.995 21.0435 19.2795 21.0435 18.4125C21.042 17.541 20.403 16.83 19.5915 16.83Z" fill="black"/>
<path d="M26.517 4.87354H7.42051C7.036 4.87452 6.65545 4.95123 6.30058 5.09928C5.94572 5.24734 5.62349 5.46384 5.35229 5.73643C5.0811 6.00901 4.86625 6.33235 4.72002 6.68797C4.57378 7.04358 4.49902 7.42452 4.50001 7.80903V27.075C4.50001 28.6995 5.81101 30.0105 7.42051 30.0105H23.58L22.8225 27.372L24.648 29.0685L26.3715 30.6645L29.4375 33.3735V7.80903C29.4385 7.42452 29.3637 7.04358 29.2175 6.68797C29.0713 6.33235 28.8564 6.00901 28.5852 5.73643C28.314 5.46384 27.9918 5.24734 27.6369 5.09928C27.2821 4.95123 26.9015 4.87452 26.517 4.87354ZM21.015 23.484C21.015 23.484 20.502 22.872 20.076 22.3275C21.942 21.7995 22.6545 20.6325 22.6545 20.6325C22.0695 21.0165 21.5145 21.2895 21.015 21.4755C19.1965 22.2366 17.194 22.4443 15.258 22.0725C14.5427 21.932 13.8417 21.7262 13.164 21.4575C12.8066 21.3218 12.4592 21.1609 12.1245 20.976C12.081 20.9445 12.039 20.9325 11.997 20.904C11.9745 20.8934 11.9546 20.878 11.9385 20.859C11.682 20.718 11.5395 20.619 11.5395 20.619C11.5395 20.619 12.2235 21.759 14.034 22.3005C13.6065 22.8405 13.0785 23.484 13.0785 23.484C9.93001 23.3835 8.73451 21.318 8.73451 21.318C8.73451 16.7295 10.7865 13.011 10.7865 13.011C12.8385 11.4705 14.79 11.514 14.79 11.514L14.9325 11.685C12.3675 12.4275 11.184 13.5525 11.184 13.5525C11.184 13.5525 11.499 13.3815 12.0255 13.14C13.5495 12.471 14.76 12.285 15.2595 12.2415C15.345 12.228 15.417 12.213 15.5025 12.213C17.9733 11.8801 20.4857 12.3496 22.6695 13.5525C22.6695 13.5525 21.543 12.4845 19.1205 11.7435L19.32 11.5155C19.32 11.5155 21.273 11.472 23.3235 13.0125C23.3235 13.0125 25.3755 16.731 25.3755 21.3195C25.3755 21.3195 24.165 23.3835 21.015 23.484Z" fill="black"/>
</svg>
