<svg width="36" height="37" viewBox="0 0 36 37" fill="none" xmlns="http://www.w3.org/2000/svg">
<path d="M30.99 10.8435C29.6811 8.57512 27.7973 6.69185 25.5285 5.38353C23.229 4.04404 20.7195 3.37354 18 3.37354C15.2805 3.37354 12.771 4.04404 10.47 5.38353C8.1705 6.72304 6.3495 8.54403 5.01 10.8435C3.6705 13.143 3 15.654 3 18.3735C3 21.093 3.669 23.604 5.01 25.9035C6.31848 28.1723 8.20238 30.0557 10.4715 31.3635C12.771 32.703 15.2805 33.3735 18 33.3735C20.7195 33.3735 23.229 32.703 25.53 31.3635C27.7988 30.0552 29.6826 28.1719 30.9915 25.9035C32.331 23.604 33 21.093 33 18.3735C33 15.654 32.331 13.143 30.99 10.8435ZM18 5.86354C21 5.86354 23.658 6.82353 25.98 8.74203C24.6 10.503 22.551 11.952 19.83 13.092C18.327 10.3725 16.698 8.10153 14.9385 6.28203C15.9357 6.00631 16.9654 5.86555 18 5.86354ZM8.265 10.5735C9.36186 9.18068 10.7497 8.04419 12.3315 7.24354C14.1495 9.04503 15.819 11.2935 17.3415 13.9935C14.3415 14.8935 11.1705 15.3435 7.83 15.3435C6.9705 15.3435 6.321 15.324 5.88 15.2835C6.33971 13.5651 7.15192 11.9611 8.265 10.5735ZM5.49 18.3735C5.49 18.2925 5.4945 18.1935 5.505 18.0735C5.5155 17.9535 5.52 17.8545 5.52 17.7735C5.901 17.7945 6.4815 17.8035 7.2615 17.8035C11.2605 17.8035 14.9805 17.253 18.42 16.1535C18.7005 16.713 18.9915 17.343 19.29 18.0435C17.31 18.483 15.279 19.5525 13.1985 21.2535C11.118 22.9545 9.6 24.744 8.64 26.6235C6.54 24.243 5.49 21.4935 5.49 18.3735ZM18 30.8835C15.159 30.8835 12.609 30.003 10.3485 28.245C11.25 26.4645 12.6345 24.762 14.505 23.1435C16.374 21.5235 18.2295 20.514 20.07 20.1135C21.231 23.322 22.0162 26.6543 22.41 30.0435C21.0043 30.5928 19.5092 30.8776 18 30.8835ZM28.62 24.9435C27.6382 26.5253 26.3161 27.8684 24.75 28.875C24.39 25.755 23.7 22.7145 22.6815 19.7535C24.0795 19.6545 25.329 19.6035 26.4315 19.6035C27.63 19.6035 28.9605 19.6545 30.42 19.7535C30.2242 21.5983 29.6084 23.3737 28.62 24.9435ZM26.76 17.4435C25.02 17.4435 23.4105 17.514 21.93 17.6535C21.6164 16.8327 21.2762 16.0223 20.91 15.2235C24.009 13.8645 26.208 12.2145 27.5085 10.2735C29.3085 12.3945 30.2895 14.814 30.4485 17.5335C29.2305 17.4735 28.0005 17.4435 26.76 17.4435Z" fill="black"/>
</svg>
