<svg width="36" height="37" viewBox="0 0 36 37" fill="none" xmlns="http://www.w3.org/2000/svg">
<path d="M30 4.87354H6C5.60218 4.87354 5.22064 5.03157 4.93934 5.31287C4.65804 5.59418 4.5 5.97571 4.5 6.37354V30.3735C4.5 30.7714 4.65804 31.1529 4.93934 31.4342C5.22064 31.7155 5.60218 31.8735 6 31.8735H18.9225V21.4335H15.4155V17.346H18.9225V14.346C18.9225 10.8585 21.0525 8.95804 24.1725 8.95804C25.221 8.95504 26.271 9.00904 27.315 9.11854V12.7485H25.1625C23.4705 12.7485 23.1405 13.5555 23.1405 14.736V17.3385H27.186L26.661 21.426H23.139V31.8735H30C30.3978 31.8735 30.7794 31.7155 31.0607 31.4342C31.342 31.1529 31.5 30.7714 31.5 30.3735V6.37354C31.5 5.97571 31.342 5.59418 31.0607 5.31287C30.7794 5.03157 30.3978 4.87354 30 4.87354Z" fill="black"/>
</svg>
