<svg width="36" height="37" viewBox="0 0 36 37" fill="none" xmlns="http://www.w3.org/2000/svg">
<path d="M17.9985 11.4391C16.1589 11.4391 14.3948 12.1699 13.094 13.4706C11.7932 14.7714 11.0625 16.5356 11.0625 18.3751C11.0625 20.2146 11.7932 21.9788 13.094 23.2796C14.3948 24.5803 16.1589 25.3111 17.9985 25.3111C19.838 25.3111 21.6022 24.5803 22.903 23.2796C24.2037 21.9788 24.9345 20.2146 24.9345 18.3751C24.9345 16.5356 24.2037 14.7714 22.903 13.4706C21.6022 12.1699 19.838 11.4391 17.9985 11.4391ZM17.9985 22.8796C16.8034 22.8796 15.6573 22.4049 14.8123 21.5598C13.9672 20.7148 13.4925 19.5687 13.4925 18.3736C13.4925 17.1785 13.9672 16.0324 14.8123 15.1874C15.6573 14.3423 16.8034 13.8676 17.9985 13.8676C19.1936 13.8676 20.3397 14.3423 21.1847 15.1874C22.0298 16.0324 22.5045 17.1785 22.5045 18.3736C22.5045 19.5687 22.0298 20.7148 21.1847 21.5598C20.3397 22.4049 19.1936 22.8796 17.9985 22.8796Z" fill="black"/>
<path d="M25.209 12.8011C26.102 12.8011 26.826 12.0771 26.826 11.1841C26.826 10.2911 26.102 9.5671 25.209 9.5671C24.3159 9.5671 23.592 10.2911 23.592 11.1841C23.592 12.0771 24.3159 12.8011 25.209 12.8011Z" fill="black"/>
<path d="M30.7995 9.5401C30.4522 8.64337 29.9216 7.82903 29.2415 7.14919C28.5614 6.46936 27.7469 5.93901 26.85 5.5921C25.8005 5.19814 24.6918 4.98512 23.571 4.9621C22.1265 4.8991 21.669 4.8811 18.006 4.8811C14.343 4.8811 13.8735 4.8811 12.441 4.9621C11.3211 4.98394 10.2131 5.19701 9.16499 5.5921C8.2679 5.93861 7.45314 6.46881 6.77299 7.1487C6.09285 7.82858 5.56233 8.64314 5.21549 9.5401C4.82145 10.5895 4.60891 11.6984 4.58699 12.8191C4.52249 14.2621 4.50299 14.7196 4.50299 18.3841C4.50299 22.0471 4.50299 22.5136 4.58699 23.9491C4.60949 25.0711 4.82099 26.1781 5.21549 27.2296C5.56331 28.1262 6.09433 28.9405 6.77464 29.6203C7.45495 30.3001 8.26959 30.8305 9.16649 31.1776C10.2126 31.5874 11.321 31.8157 12.444 31.8526C13.8885 31.9156 14.346 31.9351 18.009 31.9351C21.672 31.9351 22.1415 31.9351 23.574 31.8526C24.6946 31.8298 25.8033 31.6173 26.853 31.2241C27.7496 30.8764 28.5639 30.3456 29.2439 29.6656C29.924 28.9855 30.4548 28.1712 30.8025 27.2746C31.197 26.2246 31.4085 25.1176 31.431 23.9956C31.4955 22.5526 31.515 22.0951 31.515 18.4306C31.515 14.7661 31.515 14.3011 31.431 12.8656C31.4135 11.729 31.1999 10.604 30.7995 9.5401ZM28.9725 23.8381C28.9628 24.7026 28.805 25.559 28.506 26.3701C28.2807 26.9534 27.9359 27.4831 27.4936 27.9251C27.0513 28.3671 26.5214 28.7117 25.938 28.9366C25.1358 29.2343 24.2885 29.3921 23.433 29.4031C22.008 29.4691 21.606 29.4856 17.952 29.4856C14.295 29.4856 13.9215 29.4856 12.4695 29.4031C11.6144 29.3926 10.7675 29.2348 9.96599 28.9366C9.38052 28.7131 8.84849 28.3691 8.40433 27.927C7.96016 27.4849 7.61374 26.9545 7.38749 26.3701C7.09266 25.5677 6.93496 24.7214 6.92099 23.8666C6.85649 22.4416 6.84149 22.0396 6.84149 18.3856C6.84149 14.7301 6.84149 14.3566 6.92099 12.9031C6.93069 12.0391 7.08847 11.1832 7.38749 10.3726C7.84499 9.1891 8.78249 8.2576 9.96599 7.8046C10.7679 7.50781 11.6145 7.35005 12.4695 7.3381C13.896 7.2736 14.2965 7.2556 17.952 7.2556C21.6075 7.2556 21.9825 7.2556 23.433 7.3381C24.2886 7.3484 25.136 7.50621 25.938 7.8046C26.5214 8.03001 27.0512 8.37491 27.4934 8.81715C27.9357 9.25939 28.2806 9.78921 28.506 10.3726C28.8008 11.175 28.9585 12.0213 28.9725 12.8761C29.037 14.3026 29.0535 14.7031 29.0535 18.3586C29.0535 22.0126 29.0535 22.4056 28.989 23.8396H28.9725V23.8381Z" fill="black"/>
</svg>
